# Blender 3.3.1
# www.blender.org
mtllib child.mtl
o Cube
v 0.050644 0.550706 1.703188
v -0.808787 1.415571 0.117822
v 1.658731 0.118195 0.595493
v 0.799301 0.983061 -0.989873
v -0.771204 -1.199992 1.193655
v -1.630634 -0.335126 -0.391711
v 0.836884 -1.632502 0.085960
v -0.022547 -0.767637 -1.499407
vn 0.4297 -0.4324 0.7927
vn 0.8040 -0.2163 -0.5538
vn -0.4109 -0.8753 -0.2548
vn -0.4297 0.4324 -0.7927
vn 0.4109 0.8753 0.2548
vn -0.8040 0.2163 0.5538
vt 0.625000 0.500000
vt 0.375000 0.500000
vt 0.625000 0.750000
vt 0.375000 0.750000
vt 0.875000 0.500000
vt 0.625000 0.250000
vt 0.125000 0.500000
vt 0.375000 0.250000
vt 0.875000 0.750000
vt 0.625000 1.000000
vt 0.625000 0.000000
vt 0.375000 1.000000
vt 0.375000 0.000000
vt 0.125000 0.750000
s 0
usemtl Material
f 1/1/1 5/5/1 7/9/1 3/3/1
f 4/4/2 3/3/2 7/10/2 8/12/2
f 8/13/3 7/11/3 5/6/3 6/8/3
f 6/7/4 2/2/4 4/4/4 8/14/4
f 2/2/5 1/1/5 3/3/5 4/4/5
f 6/8/6 5/6/6 1/1/6 2/2/6
